<?xml version="1.0" encoding="UTF-8"?>
<svg version="1.1" xmlns="http://www.w3.org/2000/svg" width="1254" height="1254">
<path d="M0 0 C1.28176233 -0.00175304 2.56352466 -0.00350607 3.88412827 -0.00531223 C7.40917159 -0.00999044 10.93418873 -0.00855762 14.45923324 -0.00603446 C18.30684926 -0.00438862 22.15445997 -0.00855276 26.00207424 -0.01194364 C32.73501005 -0.01707861 39.46793867 -0.01851816 46.20087624 -0.01748753 C56.21362591 -0.01595861 66.22636768 -0.02013317 76.23911581 -0.02536215 C95.16587022 -0.03502051 114.09262191 -0.03784583 133.01937848 -0.03841921 C147.63934361 -0.03887922 162.25930768 -0.04093997 176.87927246 -0.04411983 C181.09163952 -0.04501742 185.30400658 -0.04590723 189.51637363 -0.04679471 C190.56366167 -0.04701576 191.6109497 -0.04723681 192.68997373 -0.04746456 C222.13863737 -0.05361666 251.58730065 -0.05756533 281.03596497 -0.05712128 C282.14568848 -0.0571057 283.25541199 -0.05709012 284.39876349 -0.05707407 C290.02295956 -0.05699096 295.64715563 -0.05689192 301.2713517 -0.05678936 C302.94674809 -0.05675944 302.94674809 -0.05675944 304.65599088 -0.05672892 C306.91469679 -0.05668848 309.17340269 -0.05664669 311.4321086 -0.05660353 C346.56514563 -0.05599093 381.69817301 -0.06349542 416.83120728 -0.07717609 C456.3284236 -0.09254993 495.82563358 -0.10114153 535.32285309 -0.10021287 C539.53773499 -0.10013824 543.75261688 -0.10008954 547.96749878 -0.10005856 C549.5241449 -0.10004107 549.5241449 -0.10004107 551.11223841 -0.10002324 C567.7834325 -0.09999252 584.45461818 -0.10636742 601.12580978 -0.11499082 C617.8927662 -0.12348413 634.65971037 -0.12444413 651.42666775 -0.1178815 C661.37551878 -0.11419703 671.32433249 -0.11598511 681.27317953 -0.12582384 C687.93362934 -0.13185156 694.59405231 -0.13049757 701.25450093 -0.12335334 C705.03953766 -0.11949525 708.82450253 -0.11862755 712.60953403 -0.12681069 C733.68789518 -0.16940159 754.78663907 0.11469545 775.52114868 4.31613445 C776.59638794 4.529716 777.6716272 4.74329754 778.77944946 4.96335125 C789.61468028 7.21384353 800.05700648 10.37308386 810.45864868 14.12863445 C811.30088989 14.43140301 812.1431311 14.73417156 813.01089478 15.04611492 C841.79608995 25.57374971 868.30815526 41.6861231 890.72817993 62.6091032 C892.88718486 64.60131805 895.07502926 66.52380511 897.30239868 68.4372282 C941.06145141 106.62685353 968.88550181 165.44851521 972.9774645 223.0424872 C973.4663043 230.28607386 973.60002225 237.50021644 973.58728313 244.76089668 C973.58991269 246.69828615 973.58991269 246.69828615 973.59259537 248.67481479 C973.59727426 252.22743575 973.59584052 255.78003074 973.5933176 259.33265289 C973.59167193 263.2101784 973.59583575 267.08769864 973.59922677 270.96522242 C973.60436204 277.75070215 973.60580124 284.53617475 973.60477066 291.32165623 C973.60324182 301.4125913 973.60741616 311.50351853 973.61264529 321.59445207 C973.62230403 340.66925618 973.62512898 359.7440576 973.62570234 378.81886386 C973.62616235 393.55371362 973.62822311 408.28856233 973.63140297 423.02341175 C973.63230055 427.26890343 973.63319037 431.51439512 973.63407785 435.7598868 C973.6342989 436.81541295 973.63451994 437.8709391 973.63474769 438.95845089 C973.64089991 468.6393162 973.64484846 498.32018115 973.64440441 528.00104713 C973.64438883 529.11954259 973.64437325 530.23803804 973.6443572 531.3904273 C973.6442741 537.0590747 973.64417506 542.72772211 973.6440725 548.39636951 C973.64404258 550.08500557 973.64404258 550.08500557 973.64401206 551.80775549 C973.64397162 554.08431099 973.64392982 556.3608665 973.64388666 558.63742201 C973.6432741 594.04571112 973.65077775 629.45399066 973.66445923 664.86227703 C973.67983426 704.66970328 973.68842459 744.47712323 973.68749601 784.28455263 C973.68742138 788.53287351 973.68737267 792.78119439 973.68734169 797.02951527 C973.68733004 798.07551082 973.68731838 799.12150638 973.68730637 800.19919877 C973.68727566 817.00037198 973.69364973 833.80153685 973.70227395 850.60270758 C973.71076878 867.50186575 973.71172609 884.40101176 973.70516463 901.30017089 C973.70148112 911.32657402 973.70326535 921.35294011 973.71310697 931.37933928 C973.71913721 938.09275952 973.71777795 944.80615314 973.71063648 951.51957219 C973.70678046 955.33404285 973.7059045 959.14844222 973.71409383 962.96290766 C973.77497396 993.33514995 972.10609164 1022.88589557 963.45864868 1052.12863445 C963.23838013 1052.87467937 963.01811157 1053.6207243 962.79116821 1054.38937664 C951.87316056 1090.62415874 931.63306758 1123.00894678 905.45864868 1150.12863445 C904.81089478 1150.8036198 904.16314087 1151.47860516 903.49575806 1152.17404461 C894.87840587 1161.11242749 886.16535298 1169.55358073 876.13833618 1176.89767742 C874.46157278 1178.12649153 872.80377715 1179.37807953 871.14614868 1180.6325407 C842.69736046 1201.85623985 808.62738322 1216.60314831 773.83364868 1223.37863445 C773.06021118 1223.52977703 772.28677368 1223.68091961 771.48989868 1223.83664227 C768.81905492 1224.32155365 766.14357174 1224.72817712 763.45864868 1225.12863445 C762.35456382 1225.29700502 761.25047895 1225.4653756 760.11293697 1225.6388483 C745.2446164 1227.6865106 730.27603664 1227.43959328 715.30156457 1227.44530869 C711.23290279 1227.44904601 707.16428033 1227.46422768 703.09564209 1227.47792339 C696.04886871 1227.50010422 689.00210956 1227.51517681 681.95530891 1227.52529049 C671.68550953 1227.54003092 661.41575846 1227.56562576 651.14598768 1227.59362178 C634.37090799 1227.6390458 617.5958211 1227.67564134 600.82070923 1227.70675945 C584.72303891 1227.73663781 568.62538817 1227.77093519 552.52774048 1227.81125164 C551.54436127 1227.81371319 550.56098205 1227.81617474 549.54780347 1227.81871088 C545.58892281 1227.82863732 541.63004221 1227.83859133 537.67116171 1227.84858284 C453.57385937 1228.06059061 369.47734942 1228.19909067 184.42158985 1227.89291954 C180.42686282 1227.88395906 176.43213569 1227.87504887 172.43740845 1227.86618328 C171.44538257 1227.8639796 170.4533567 1227.86177591 169.43126943 1227.85950545 C153.21481145 1227.82379906 136.99835381 1227.79909045 120.78187064 1227.77828743 C103.95120536 1227.75646769 87.12058921 1227.72341488 70.28996581 1227.67993289 C59.99660711 1227.65367427 49.70330903 1227.6357907 39.40991857 1227.62928841 C32.38394084 1227.62400129 25.35804062 1227.60767457 18.3321046 1227.58296879 C14.30031693 1227.56910115 10.26866751 1227.55972764 6.23685455 1227.56362629 C-67.51108528 1227.62007319 -130.68750356 1202.564826 -183.22885132 1150.62863445 C-188.74647315 1145.1037131 -193.74134532 1139.2913908 -198.54135132 1133.12863445 C-199.30576538 1132.19277508 -200.07017944 1131.2569157 -200.85775757 1130.29269695 C-212.38654637 1115.89558992 -221.82984939 1099.8620001 -229.54135132 1083.12863445 C-230.04795288 1082.05484539 -230.55455444 1080.98105633 -231.07650757 1079.8747282 C-247.51178758 1043.45414769 -252.03942692 1005.74250077 -251.92675398 966.16157292 C-251.91900645 962.23819586 -251.92897682 958.31485162 -251.93648398 954.39147949 C-251.94722489 947.54401131 -251.94704911 940.69661432 -251.9393425 933.84914303 C-251.92791338 923.66607833 -251.93383827 913.48307279 -251.94296742 903.30000839 C-251.95870451 885.10457984 -251.95741955 866.90918304 -251.94873068 848.71375152 C-251.94116455 832.79000021 -251.93922296 816.86626049 -251.94279861 800.94250774 C-251.94302777 799.88356775 -251.94325693 798.82462777 -251.94349302 797.73359869 C-251.94442714 793.43431214 -251.94538235 789.1350256 -251.94637232 784.83573906 C-251.95553588 744.55877183 -251.94725028 704.28182472 -251.93108162 664.00486059 C-251.91684631 628.27234474 -251.91812025 592.53986097 -251.9324646 556.80734539 C-251.94855122 516.60097004 -251.95488584 476.39461246 -251.94562781 436.18823433 C-251.94466575 431.89707661 -251.94372722 427.60591889 -251.94279861 423.31476116 C-251.94256138 422.25827752 -251.94232415 421.20179389 -251.94207973 420.11329559 C-251.93867668 404.20504305 -251.9426406 388.29680342 -251.95023727 372.38855267 C-251.95883793 354.28832665 -251.95662196 336.18813716 -251.94039504 318.08791566 C-251.9316266 307.97541881 -251.93095227 297.86300118 -251.94233357 287.75050649 C-251.94911269 280.97628903 -251.94478134 274.20213443 -251.93181926 267.42792621 C-251.92475573 263.58138322 -251.92208747 259.73499633 -251.93303721 255.88845885 C-252.10576897 190.17643651 -233.26017785 129.32678952 -187.47494507 80.9450407 C-185.85174963 79.31483362 -184.20334595 77.71905994 -182.54135132 76.12863445 C-180.1178447 73.72470381 -177.71396802 71.30958864 -175.35775757 68.83957195 C-169.14940588 62.40526639 -162.50815478 56.8969861 -155.38119507 51.51974773 C-153.57042482 50.15061704 -151.77459967 48.76347315 -149.97885132 47.3747282 C-106.86487724 14.44654026 -53.73154425 -0.09503155 0 0 Z " fill="#150848" transform="translate(266.5413513183594,12.871365547180176)"/>
<path d="M0 0 C1.81617946 0.40206749 3.63258889 0.80309747 5.44921875 1.203125 C14.72384853 3.31923451 23.32501437 6.05202328 32 10 C33.56025417 10.58931397 35.12276334 11.17269315 36.6875 11.75 C48.85888879 16.61071565 60.36757878 23.3928257 71 31 C71.99515625 31.70898438 72.9903125 32.41796875 74.015625 33.1484375 C80.32530822 37.75935985 86.13298171 42.69010456 91.8203125 48.03125 C93.83871669 50.03087662 93.83871669 50.03087662 96 51 C95.97381592 49.81446533 95.94763184 48.62893066 95.9206543 47.4074707 C95.83000979 43.00011134 95.77269912 38.592834 95.7253418 34.18481445 C95.70023001 32.27874893 95.66613355 30.37277941 95.62280273 28.46704102 C95.56200256 25.72388002 95.53375755 22.98199414 95.51171875 20.23828125 C95.48591232 19.38913651 95.4601059 18.53999176 95.43351746 17.66511536 C95.4331398 16.86466293 95.43276215 16.06421051 95.43237305 15.23950195 C95.42126999 14.54000931 95.41016693 13.84051666 95.39872742 13.11982727 C96.43193259 9.47719235 97.91454169 8.19813957 101 6 C104.88705938 5.25390396 108.72361769 5.31713826 112.67163086 5.35302734 C113.85265884 5.34426575 115.03368683 5.33550415 116.25050354 5.32647705 C119.48225968 5.30826119 122.71298916 5.31250184 125.94472957 5.32837248 C129.33187264 5.34105682 132.71894851 5.3292841 136.10609436 5.32144165 C141.79473124 5.31235111 147.48304332 5.32431565 153.17163086 5.34814453 C159.74009539 5.37534213 166.30778358 5.36655009 172.87622923 5.3390125 C178.5231536 5.31628942 184.16984483 5.31313719 189.81680018 5.32620585 C193.18617725 5.3339847 196.55518999 5.33508611 199.92454338 5.31852341 C203.68322051 5.30582291 207.44040837 5.32518528 211.19897461 5.35302734 C212.31033783 5.34290619 213.42170105 5.33278503 214.56674194 5.32235718 C215.59429092 5.3364563 216.6218399 5.35055542 217.68052673 5.36508179 C218.56817183 5.36696692 219.45581694 5.36885204 220.37036037 5.3707943 C224.14231547 6.27332696 226.72567265 7.89820826 229 11 C229.8996951 14.65875783 229.80150527 18.25027086 229.74946022 22.00244141 C229.75758167 23.13116952 229.76570312 24.25989763 229.77407068 25.42282963 C229.79407893 29.23290219 229.77104386 33.0415213 229.7484436 36.8515625 C229.75059031 39.5994565 229.76177231 42.34729708 229.77253091 45.09516907 C229.79114812 51.0838126 229.78738278 57.07212078 229.76906586 63.0607605 C229.74190318 71.96586905 229.74898459 80.87071923 229.76298306 89.77584636 C229.78686127 105.6784966 229.77664763 121.58098853 229.75242651 137.48363006 C229.73137425 151.40006949 229.72227295 165.31645492 229.72501755 179.23291016 C229.72526964 180.61626661 229.72526964 180.61626661 229.72552682 182.02756965 C229.72623129 185.7710038 229.72699931 189.51443793 229.72785798 193.25787205 C229.73579245 228.39163381 229.7103318 263.52530006 229.66880485 298.65903449 C229.63206452 329.88990126 229.62043989 361.12067644 229.63134766 392.3515625 C229.63204052 394.35681343 229.63273272 396.36206436 229.63342424 398.36731529 C229.63376623 399.35866165 229.63410822 400.35000801 229.63446057 401.37139517 C229.63616759 406.36144767 229.63781517 411.35150019 229.63939857 416.34155273 C229.63971274 417.32596135 229.6400269 418.31036998 229.64035058 419.32460916 C229.64832628 445.40206452 229.63738546 471.47951104 229.62037599 497.55696106 C229.61856187 500.36211749 229.61675057 503.16727392 229.61494553 505.97243035 C229.6137433 507.83338615 229.61252607 509.69434195 229.61129371 511.55529773 C229.60284266 524.54232695 229.60169791 537.52933885 229.6055047 550.51636994 C229.61038531 567.25066609 229.60229031 583.98486935 229.57108469 600.71914005 C229.55495374 609.57419765 229.54980343 618.42910056 229.56036941 627.28416747 C229.56630629 633.1929291 229.55777494 639.10155354 229.53727225 645.01028234 C229.52597736 648.38105507 229.52324551 651.7512488 229.53360541 655.12206459 C229.5437413 658.74755227 229.52954931 662.37213482 229.50895119 665.99755859 C229.51774416 667.05148835 229.52653713 668.10541811 229.53559655 669.19128513 C229.48690308 673.65337191 229.45486548 676.25450127 227.09319055 680.12515259 C223.98245971 682.91139948 222.28415046 683.12742388 218.19950867 683.14717102 C216.67905441 683.15790398 216.67905441 683.15790398 215.12788391 683.16885376 C214.01149033 683.17154266 212.89509674 683.17423157 211.74487305 683.17700195 C209.98620911 683.18685875 209.98620911 683.18685875 208.1920166 683.19691467 C204.29859064 683.21668205 200.40517813 683.22831744 196.51171875 683.23828125 C195.17145072 683.24232871 193.8311829 683.24644563 192.4909153 683.25063133 C186.19420872 683.26968384 179.89751387 683.28391464 173.600784 683.2922433 C166.33232156 683.30201596 159.06416363 683.32833557 151.79580849 683.36874419 C146.17789949 683.39890523 140.56007778 683.41371215 134.94208938 683.41702431 C131.58666434 683.41937491 128.23156461 683.4283357 124.87622643 683.45348549 C121.13167244 683.47774676 117.38791852 683.47693529 113.64331055 683.4699707 C112.53298965 683.48278076 111.42266876 683.49559082 110.27870178 683.50878906 C102.76075457 683.45771434 102.76075457 683.45771434 98.83479309 681.09562683 C95.35692258 677.12334309 95.84759254 673.45836592 95.84178162 668.40744019 C95.83437465 667.05730463 95.83437465 667.05730463 95.82681805 665.67989361 C95.81138685 662.64580992 95.80306726 659.61174747 95.79467773 656.57763672 C95.78510362 654.40987967 95.77509383 652.24212451 95.76467896 650.07437134 C95.73757319 644.17386352 95.7165944 638.27334766 95.69667697 632.37281179 C95.67485231 626.21215939 95.64744645 620.05153195 95.62062073 613.89089966 C95.57064612 602.21787708 95.52572502 590.54484068 95.48259836 578.87179101 C95.43326667 565.58540279 95.37833349 552.29904028 95.32291877 539.012676 C95.20902555 511.67514068 95.10220255 484.33758135 95 457 C94.46097549 457.54459869 93.92195099 458.08919739 93.36659241 458.65029907 C92.65401779 459.36720917 91.94144318 460.08411926 91.20727539 460.82275391 C90.50325089 461.5323526 89.79922638 462.24195129 89.0738678 462.97305298 C86.33974046 465.64532132 83.46204427 468.04207507 80.4375 470.375 C79.84235596 470.83632324 79.24721191 471.29764648 78.6340332 471.77294922 C56.24957456 488.9071657 28.96722729 504.10800917 0.8125 508.5 C-5.70042257 509.57529079 -12.12657861 510.85424734 -18.55859375 512.3515625 C-27.98385968 514.12749229 -37.3695646 514.15888327 -46.9375 514.125 C-47.95955536 514.12267365 -47.95955536 514.12267365 -49.0022583 514.12030029 C-57.29724327 514.09817385 -65.58810514 514.02087896 -73.875 513.625 C-74.58519287 513.59422363 -75.29538574 513.56344727 -76.02709961 513.53173828 C-80.45998347 513.27446555 -84.59910092 512.48624978 -88.90136719 511.46826172 C-91.64651197 510.8557457 -94.39276781 510.55369664 -97.1875 510.25 C-141.13928559 504.07884897 -185.31611137 480.99405478 -217.7421875 451.0703125 C-219.76475254 449.21571134 -221.83483984 447.44964839 -223.9375 445.6875 C-247.90776549 424.76184484 -271.25060037 391.9855241 -281.1484375 361.4921875 C-282.03440455 358.89931144 -283.11409072 356.42153807 -284.20605469 353.91015625 C-290.5349374 338.68347164 -294.68052808 322.29029392 -297 306 C-297.11606094 305.22153717 -297.23212189 304.44307434 -297.35169983 303.64102173 C-299.53085239 288.8379112 -300.4518485 274.3467555 -300.33618164 259.38867188 C-300.31235649 256.10522183 -300.3156869 252.82257875 -300.32226562 249.5390625 C-300.30187438 234.15628393 -299.89396776 218.93095512 -295.7734375 204.01953125 C-294.88608914 200.5552874 -294.28973724 197.08735913 -293.6875 193.5625 C-291.36686098 180.5321995 -288.02375752 167.22845472 -282.1484375 155.328125 C-280.97196272 152.94316252 -279.97269172 150.53702774 -279 148.0625 C-278.67 147.23492187 -278.34 146.40734375 -278 145.5546875 C-277.3360637 143.85853773 -276.69000879 142.15527395 -276.0625 140.4453125 C-269.45067518 123.28373778 -258.97427279 107.65020137 -248 93 C-247.32710938 92.09378906 -246.65421875 91.18757813 -245.9609375 90.25390625 C-224.08406395 61.90706371 -195.43848548 39.75001276 -164 23 C-162.95328125 22.43539063 -161.9065625 21.87078125 -160.828125 21.2890625 C-154.65657323 18.07267176 -148.41114494 15.57872864 -141.8125 13.37109375 C-138.60062576 12.27278813 -135.52519649 10.93010368 -132.4140625 9.57421875 C-125.87624041 6.82741838 -119.2595352 5.03049078 -112.375 3.375 C-110.54110718 2.92616455 -110.54110718 2.92616455 -108.67016602 2.46826172 C-99.18566459 0.18978164 -89.69027396 -1.8247599 -80 -3 C-79.28239502 -3.0920874 -78.56479004 -3.1841748 -77.82543945 -3.27905273 C-52.50470218 -6.0690716 -24.80180806 -5.96663106 0 0 Z " fill="#FDFDFD" transform="translate(588,314)"/>
<path d="M0 0 C1.0455304 -0.0121907 1.0455304 -0.0121907 2.11218262 -0.02462769 C15.93568913 -0.14522645 28.81240856 1.85818626 41.75 7 C43.07535767 7.51832397 43.07535767 7.51832397 44.42749023 8.04711914 C78.8917966 21.86814523 104.44281772 46.69579339 119.08105469 80.74560547 C119.86461816 82.61496404 120.62319526 84.49266734 121.375 86.375 C121.62773682 86.98424316 121.88047363 87.59348633 122.14086914 88.22119141 C135.36034736 121.33982007 131.91153396 162.04444651 118.26904297 194.31152344 C117.97400879 194.9924707 117.67897461 195.67341797 117.375 196.375 C117.09930176 197.01469727 116.82360352 197.65439453 116.53955078 198.31347656 C110.10055442 212.90032426 100.49622794 225.09669257 89.375 236.375 C88.52421875 237.23867188 87.6734375 238.10234375 86.796875 238.9921875 C75.45971843 249.8880775 61.76456574 257.30148199 47.375 263.375 C45.80492187 264.06722656 45.80492187 264.06722656 44.203125 264.7734375 C14.21938211 276.84006574 -22.81321542 275.14162104 -52.625 263.375 C-65.05341282 257.92189956 -76.34173085 251.23043795 -86.625 242.375 C-87.51316406 241.62476563 -88.40132813 240.87453125 -89.31640625 240.1015625 C-108.69064527 223.2415377 -122.14466186 201.23833816 -128.625 176.375 C-129.03492188 175.0446875 -129.03492188 175.0446875 -129.453125 173.6875 C-139.81275305 137.93662673 -133.13024782 98.1447847 -115.99462891 65.84960938 C-110.74346738 56.36194925 -104.128908 48.18898685 -96.625 40.375 C-95.79355469 39.48039062 -94.96210938 38.58578125 -94.10546875 37.6640625 C-77.44811087 20.25066056 -56.65894405 9.81365834 -33.625 3.375 C-32.94630859 3.18147949 -32.26761719 2.98795898 -31.56835938 2.78857422 C-21.23281717 0.0024484 -10.62702713 0.07322761 0 0 Z " fill="#130746" transform="translate(558.625,432.625)"/>
<path d="M0 0 C0.85207031 0.69738281 1.70414063 1.39476562 2.58203125 2.11328125 C3.42378906 2.77972656 4.26554688 3.44617188 5.1328125 4.1328125 C20.32528386 16.86802566 31.02654532 36.4232622 33.58203125 56.11328125 C35.56846088 80.20811044 30.0424255 102.02409392 14.421875 120.6953125 C0.71570962 136.37629417 -17.31927976 147.82364361 -38.41796875 150.11328125 C-64.20083604 151.79446287 -85.8082124 146.3691196 -105.8203125 129.453125 C-120.38453954 116.33437011 -130.84190236 97.47716078 -132.73754883 77.79516602 C-132.89031742 74.33249452 -132.93709258 70.89173623 -132.91796875 67.42578125 C-132.91152344 66.19770752 -132.90507813 64.96963379 -132.8984375 63.7043457 C-132.49657067 43.62554545 -124.90543543 26.04491263 -111.41796875 11.11328125 C-110.75410156 10.35660156 -110.09023438 9.59992187 -109.40625 8.8203125 C-81.73467296 -20.89722217 -32.01986834 -24.893924 0 0 Z " fill="#8546FA" transform="translate(996.41796875,837.88671875)"/>
<path d="M0 0 C0.33 0 0.66 0 1 0 C1.19412181 1.47831221 1.38012131 2.95769316 1.5625 4.4375 C1.66691406 5.26121094 1.77132813 6.08492187 1.87890625 6.93359375 C1.91886719 7.61550781 1.95882813 8.29742187 2 9 C1.67 9.33 1.34 9.66 1 10 C0.90032993 11.65266328 0.87130861 13.30961566 0.86938947 14.96528059 C0.86386841 16.59199651 0.86386841 16.59199651 0.85823581 18.25157538 C0.85925847 19.46022917 0.86028114 20.66888297 0.8613348 21.91416264 C0.85849258 23.19003861 0.85565036 24.46591459 0.85272202 25.78045347 C0.84490361 29.35409558 0.84337797 32.92771796 0.8427946 36.50136758 C0.84107391 40.37699606 0.83359332 44.25261389 0.82681805 48.12823623 C0.81573027 54.93137021 0.80837732 61.73450044 0.80341911 68.53764153 C0.79602969 78.65377663 0.78295048 88.76989868 0.76867336 98.88602612 C0.74482358 115.90023107 0.72563596 132.91443833 0.70907402 149.92865181 C0.69265238 166.7832019 0.67417782 183.63774767 0.65294075 200.4922924 C0.65162314 201.53891548 0.65030554 202.58553856 0.648948 203.66387749 C0.64224623 208.97880248 0.63550759 214.29372742 0.62875474 219.60865235 C0.58094807 257.28784412 0.53777562 294.96703992 0.49731445 332.64624023 C0.45798804 369.25887343 0.41657123 405.87150328 0.37231445 442.48413086 C0.37095192 443.61201155 0.36958939 444.73989223 0.36818558 445.90195112 C0.3545006 457.22823849 0.34077303 468.55452581 0.32701423 479.88081309 C0.29898511 502.95528603 0.27124041 526.0297593 0.2436676 549.10423279 C0.2423994 550.16523964 0.2411312 551.22624648 0.23982458 552.31940505 C0.15511966 623.21293127 0.07704577 694.1064651 0 765 C-0.33 765 -0.66 765 -1 765 C-1.41106839 683.56023118 -1.81534105 602.11974049 -2.18563652 304.83172417 C-2.1856245 304.13400528 -2.18561247 303.43628639 -2.18560008 302.71742451 C-2.1855372 299.18937801 -2.18546539 295.66133152 -2.18539308 292.13328503 C-2.18537878 291.43392702 -2.18536448 290.734569 -2.18534975 290.01401832 C-2.18531841 288.60092835 -2.18528321 287.18783839 -2.18524415 285.77474842 C-2.18463996 263.26673687 -2.19246829 240.75873985 -2.20581055 218.25073242 C-2.22116004 192.35283069 -2.22978074 166.45493849 -2.22884732 140.55703193 C-2.22877276 137.81133989 -2.22872402 135.06564786 -2.22869301 132.31995583 C-2.22868135 131.64491822 -2.2286697 130.96988062 -2.22865769 130.27438733 C-2.2286291 120.18894361 -2.23390704 110.10351235 -2.24202538 100.01807213 C-2.25108727 88.70339885 -2.253335 77.38875045 -2.24651595 66.07407513 C-2.24325171 60.33344639 -2.24319541 54.59286569 -2.2518692 48.85224152 C-2.25971891 43.60539481 -2.25831947 38.35863448 -2.24958507 33.11178992 C-2.24804885 31.21972214 -2.24987082 29.32764792 -2.25544515 27.43558773 C-2.28114161 18.09791118 -2.26252998 9.13069598 0 0 Z " fill="#151333" transform="translate(17,230)"/>
<path d="M0 0 C0.33 0 0.66 0 1 0 C0.67 53.79 0.34 107.58 0 163 C-0.66 162.67 -1.32 162.34 -2 162 C-2 109.53 -2 57.06 -2 3 C-1.34 3 -0.68 3 0 3 C0 2.01 0 1.02 0 0 Z " fill="#1B0A5E" transform="translate(1239,244)"/>
<path d="M0 0 C3.92024871 2.17556144 7.03652685 4.69684991 10.3125 7.75 C11.19550781 8.56984375 12.07851562 9.3896875 12.98828125 10.234375 C13.46136719 10.67418701 13.93445312 11.11399902 14.421875 11.56713867 C16.19487305 13.17693532 18.01274548 14.72790661 19.83203125 16.28515625 C24.28677789 20.16926879 28.33898286 24.3750952 32.375 28.6875 C33.08527344 29.43322266 33.79554687 30.17894531 34.52734375 30.94726562 C35.54634766 32.03104492 35.54634766 32.03104492 36.5859375 33.13671875 C37.1948584 33.78342529 37.8037793 34.43013184 38.43115234 35.09643555 C39.98507032 36.98188504 41.00549639 38.77671957 42 41 C38.49753463 40.42661715 36.97299477 39.2918557 34.609375 36.68359375 C33.98619385 36.00546631 33.3630127 35.32733887 32.72094727 34.62866211 C31.74532837 33.54403687 31.74532837 33.54403687 30.75 32.4375 C29.40057867 30.96797904 28.0503272 29.49921992 26.69921875 28.03125 C26.05645996 27.32871094 25.41370117 26.62617187 24.75146484 25.90234375 C18.44998376 19.05802529 11.76686906 12.17791271 4 7 C4 6.34 4 5.68 4 5 C2.68 4.34 1.36 3.68 0 3 C0 2.01 0 1.02 0 0 Z " fill="#38237B" transform="translate(1144,65)"/>
<path d="M0 0 C0.66 0 1.32 0 2 0 C2.33 16.17 2.66 32.34 3 49 C2.01 49 1.02 49 0 49 C0.01160156 48.09636719 0.02320313 47.19273437 0.03515625 46.26171875 C0.04417969 45.08222656 0.05320312 43.90273438 0.0625 42.6875 C0.07410156 41.51574219 0.08570313 40.34398437 0.09765625 39.13671875 C0.14899898 35.96940805 0.14899898 35.96940805 -1 33 C-1.38426859 28.7591944 -1.51372403 24.50403563 -1.6875 20.25 C-1.74744141 19.08210937 -1.80738281 17.91421875 -1.86914062 16.7109375 C-2.11840865 10.68752938 -2.16083396 5.66287519 0 0 Z " fill="#1A1638" transform="translate(286,553)"/>
<path d="M0 0 C0 10.56 0 21.12 0 32 C-0.99 32 -1.98 32 -3 32 C-3 21.77 -3 11.54 -3 1 C-1 0 -1 0 0 0 Z " fill="#282053" transform="translate(688,553)"/>
<path d="M0 0 C-1 3 -1 3 -2.74151611 4.17330933 C-5.35350334 5.12939562 -7.35583388 5.2408127 -10.13574219 5.22705078 C-11.15649841 5.22689972 -12.17725464 5.22674866 -13.22894287 5.22659302 C-14.32386047 5.21627045 -15.41877808 5.20594788 -16.546875 5.1953125 C-18.23638275 5.19106766 -18.23638275 5.19106766 -19.96002197 5.18673706 C-23.55678946 5.17554374 -27.15330779 5.15044037 -30.75 5.125 C-33.18879849 5.11496912 -35.62760088 5.10584346 -38.06640625 5.09765625 C-44.04435582 5.07560716 -50.02216011 5.04213784 -56 5 C-56 4.34 -56 3.68 -56 3 C-38.84 3 -21.68 3 -4 3 C-4 2.34 -4 1.68 -4 1 C-2 0 -2 0 0 0 Z " fill="#0E0A37" transform="translate(815,995)"/>
<path d="M0 0 C0.33 0 0.66 0 1 0 C0.31571262 11.03863582 -0.79302704 22.0083433 -2 33 C-2.66 32.67 -3.32 32.34 -4 32 C-4.02705729 30.22925083 -4.04642195 28.45838289 -4.0625 26.6875 C-4.07410156 25.70136719 -4.08570313 24.71523438 -4.09765625 23.69921875 C-4 21 -4 21 -3 18 C-2.96125079 16.33378384 -2.9549714 14.66605828 -3 13 C-2.34 13 -1.68 13 -1 13 C-1.33 10.36 -1.66 7.72 -2 5 C-1.34 5 -0.68 5 0 5 C0 3.35 0 1.7 0 0 Z " fill="#0C072C" transform="translate(290,520)"/>
<path d="M0 0 C0.33 0 0.66 0 1 0 C0.67 12.21 0.34 24.42 0 37 C-0.66 37 -1.32 37 -2 37 C-2 25.78 -2 14.56 -2 3 C-1.34 3 -0.68 3 0 3 C0 2.01 0 1.02 0 0 Z " fill="#23106C" transform="translate(1239,244)"/>
<path d="M0 0 C4.88049925 3.9419417 9.0580583 8.11950075 13 13 C12.01 13.33 11.02 13.66 10 14 C8.32401988 12.23722805 6.65940764 10.46575711 5 8.6875 C4.52304688 8.18798828 4.04609375 7.68847656 3.5546875 7.17382812 C0 3.33984375 0 3.33984375 0 0 Z " fill="#361C7D" transform="translate(1173,92)"/>
<path d="M0 0 C0 0.66 0 1.32 0 2 C-1.14339844 2.55429687 -2.28679687 3.10859375 -3.46484375 3.6796875 C-4.95588463 4.41114152 -6.44676162 5.14292967 -7.9375 5.875 C-8.69224609 6.23980469 -9.44699219 6.60460938 -10.22460938 6.98046875 C-10.94326172 7.33496094 -11.66191406 7.68945312 -12.40234375 8.0546875 C-13.39995728 8.54171143 -13.39995728 8.54171143 -14.41772461 9.03857422 C-16.18049244 9.91752268 -16.18049244 9.91752268 -17 12 C-18.32 11.34 -19.64 10.68 -21 10 C-17.87852455 8.32666842 -14.75226502 6.66248284 -11.625 5 C-10.73554688 4.52304687 -9.84609375 4.04609375 -8.9296875 3.5546875 C-8.07890625 3.10351562 -7.228125 2.65234375 -6.3515625 2.1875 C-5.56604004 1.76855469 -4.78051758 1.34960938 -3.97119141 0.91796875 C-2 0 -2 0 0 0 Z " fill="#1D183A" transform="translate(159,36)"/>
<path d="M0 0 C1.27230469 0.20367187 2.54460938 0.40734375 3.85546875 0.6171875 C4.83128906 0.78476562 5.80710937 0.95234375 6.8125 1.125 C6.4825 2.115 6.1525 3.105 5.8125 4.125 C0.39451328 3.43334212 -4.8697785 2.36700752 -10.1875 1.125 C-6.25580336 -1.49613109 -4.58439982 -0.75705685 0 0 Z " fill="#292058" transform="translate(594.1875,312.875)"/>
<path d="M0 0 C4.24404412 3.88026891 7.10917547 8.04254346 10 13 C8.68 12.67 7.36 12.34 6 12 C6 11.01 6 10.02 6 9 C5.34 9 4.68 9 4 9 C4 8.01 4 7.02 4 6 C3.34 6 2.68 6 2 6 C1.34 4.02 0.68 2.04 0 0 Z " fill="#1F174A" transform="translate(658,482)"/>
<path d="M0 0 C0.33 0.99 0.66 1.98 1 3 C-0.58468677 2.54636829 -2.16769924 2.08688548 -3.75 1.625 C-4.63171875 1.36976563 -5.5134375 1.11453125 -6.421875 0.8515625 C-8.76080572 0.0790066 -10.83442562 -0.83625676 -13 -2 C-7.76481271 -3.34619102 -4.52566413 -3.01710942 0 0 Z " fill="#372D64" transform="translate(613,319)"/>
<path d="M0 0 C0.66 0.33 1.32 0.66 2 1 C-0.03119476 3.09910705 -2.10828078 4.98622598 -4.4375 6.75 C-5.01371094 7.19859375 -5.58992187 7.6471875 -6.18359375 8.109375 C-8 9 -8 9 -12 8 C-8.04 5.36 -4.08 2.72 0 0 Z " fill="#211E3D" transform="translate(136,47)"/>
<path d="M0 0 C-1.42609159 3.36202939 -3.14348515 5.23675579 -5.9375 7.5625 C-8.39732014 9.6269098 -10.76368922 11.69358543 -13 14 C-12.51061681 9.72538761 -10.04257174 7.67448934 -7.0625 4.75 C-6.16660156 3.85796875 -5.27070312 2.9659375 -4.34765625 2.046875 C-2 0 -2 0 0 0 Z " fill="#9153EC" transform="translate(896,840)"/>
<path d="M0 0 C3.3156096 6.15756068 4.41873413 12.11658833 5 19 C3 18 3 18 2.1484375 15.48828125 C1.89320312 14.44027344 1.63796875 13.39226562 1.375 12.3125 C1.11460938 11.27738281 0.85421875 10.24226563 0.5859375 9.17578125 C0.00698506 6.03785903 -0.1049677 3.18242993 0 0 Z " fill="#121227" transform="translate(20,1040)"/>
<path d="M0 0 C1.46067199 0.45082469 2.91848032 0.91093537 4.375 1.375 C5.18710938 1.63023438 5.99921875 1.88546875 6.8359375 2.1484375 C9 3 9 3 11 5 C10.34 5.66 9.68 6.32 9 7 C6.03 5.35 3.06 3.7 0 2 C0 1.34 0 0.68 0 0 Z " fill="#362271" transform="translate(1088,32)"/>
<path d="M0 0 C3.2826932 1.49076434 5.93077441 3.38620321 8.75 5.625 C9.94882812 6.57246094 9.94882812 6.57246094 11.171875 7.5390625 C11.77515625 8.02117188 12.3784375 8.50328125 13 9 C12.01 9.33 11.02 9.66 10 10 C7.51953125 8.41796875 7.51953125 8.41796875 4.8125 6.1875 C3.91144531 5.45917969 3.01039063 4.73085938 2.08203125 3.98046875 C1.39496094 3.32691406 0.70789063 2.67335938 0 2 C0 1.34 0 0.68 0 0 Z " fill="#8B55E9" transform="translate(889,964)"/>
<path d="M0 0 C0 0.66 0 1.32 0 2 C-5.23420787 5.27137992 -8.16605611 5.10643764 -14 4 C-14 3.67 -14 3.34 -14 3 C-13.38511719 2.86722656 -12.77023437 2.73445312 -12.13671875 2.59765625 C-11.32847656 2.42105469 -10.52023437 2.24445312 -9.6875 2.0625 C-8.88699219 1.88847656 -8.08648438 1.71445312 -7.26171875 1.53515625 C-0.77372263 0 -0.77372263 0 0 0 Z " fill="#252142" transform="translate(604,818)"/>
<path d="M0 0 C0.33 0 0.66 0 1 0 C0.03644647 10.55808656 0.03644647 10.55808656 -1 15 C-1.33 15 -1.66 15 -2 15 C-2.33 11.7 -2.66 8.4 -3 5 C-2.34 4.67 -1.68 4.34 -1 4 C-0.34786708 1.97536745 -0.34786708 1.97536745 0 0 Z " fill="#08032D" transform="translate(865,881)"/>
<path d="M0 0 C0.66 0 1.32 0 2 0 C2.67154933 1.28913487 3.33708859 2.58140204 4 3.875 C4.37125 4.59429688 4.7425 5.31359375 5.125 6.0546875 C6 8 6 8 6 10 C3 9 3 9 1.3125 6.125 C0 3 0 3 0 0 Z " fill="#302E4E" transform="translate(311,687)"/>
<path d="M0 0 C2.61885488 2.36944013 4.41866551 4.83733102 6 8 C5.67 8.99 5.34 9.98 5 11 C4.34 11 3.68 11 3 11 C3 9.68 3 8.36 3 7 C2.34 6.67 1.68 6.34 1 6 C0.32624548 3.911361 0 2.19636905 0 0 Z " fill="#372474" transform="translate(1205,133)"/>
<path d="M0 0 C8.57142857 0.85714286 8.57142857 0.85714286 12 3 C7.06729471 4.6442351 4.45975807 3.18615592 0 1 C0 0.67 0 0.34 0 0 Z " fill="#0F0A2E" transform="translate(475,821)"/>
<path d="M0 0 C1.12894876 0.93274109 2.25300876 1.87140122 3.375 2.8125 C4.00148438 3.33457031 4.62796875 3.85664062 5.2734375 4.39453125 C7 6 7 6 9 9 C5.55862568 7.4705003 2.7777867 5.54630448 0 3 C0 2.01 0 1.02 0 0 Z " fill="#2D1775" transform="translate(1173,92)"/>
<path d="M0 0 C0.66 0.99 1.32 1.98 2 3 C0.02 5.97 0.02 5.97 -2 9 C-2.99 8.67 -3.98 8.34 -5 8 C-3.35 5.36 -1.7 2.72 0 0 Z " fill="#201E43" transform="translate(52,128)"/>
<path d="M0 0 C2.67901932 2.31881505 3.66204403 4.31814468 4.6875 7.6875 C4.93886719 8.49574219 5.19023438 9.30398438 5.44921875 10.13671875 C5.63097656 10.75160156 5.81273437 11.36648438 6 12 C3.12753751 9.29650589 1.58862143 6.63113469 0 3 C0 2.01 0 1.02 0 0 Z " fill="#141329" transform="translate(36,1091)"/>
<path d="M0 0 C1.65 1.65 3.3 3.3 5 5 C4.67 5.66 4.34 6.32 4 7 C3.01 6.67 2.02 6.34 1 6 C-0.1875 3.4375 -0.1875 3.4375 -1 1 C-0.67 0.67 -0.34 0.34 0 0 Z " fill="#38227B" transform="translate(1187,107)"/>
<path d="M0 0 C2.91517292 1.07401108 4.77810176 1.77810176 7 4 C6.34 4.66 5.68 5.32 5 6 C3.0625 5.25 3.0625 5.25 1 4 C0.25 1.875 0.25 1.875 0 0 Z " fill="#352273" transform="translate(1107,41)"/>
<path d="M0 0 C0.33 0 0.66 0 1 0 C1.25 6.625 1.25 6.625 -1 10 C-2 5.25 -2 5.25 -2 3 C-1.34 3 -0.68 3 0 3 C0 2.01 0 1.02 0 0 Z " fill="#402F73" transform="translate(1239,244)"/>
<path d="M0 0 C0 0.66 0 1.32 0 2 C-2.375 3.0625 -2.375 3.0625 -5 4 C-5.66 3.67 -6.32 3.34 -7 3 C-7 2.34 -7 1.68 -7 1 C-4 0 -4 0 0 0 Z " fill="#1D193C" transform="translate(618,814)"/>
<path d="M0 0 C0.33 0 0.66 0 1 0 C1 2.64 1 5.28 1 8 C0.01 8 -0.98 8 -2 8 C-1.125 1.125 -1.125 1.125 0 0 Z " fill="#3A2672" transform="translate(1238,229)"/>
<path d="M0 0 C1.98 0.66 3.96 1.32 6 2 C5.01 3.485 5.01 3.485 4 5 C2.68 4.34 1.36 3.68 0 3 C0 2.01 0 1.02 0 0 Z " fill="#352174" transform="translate(1101,38)"/>
<path d="" fill="#FEFEFE" transform="translate(0,0)"/>
<path d="" fill="#FEFEFE" transform="translate(0,0)"/>
<path d="" fill="#FDFDFD" transform="translate(0,0)"/>
<path d="" fill="#FEFEFE" transform="translate(0,0)"/>
</svg>
